<svg width="141" height="283" viewBox="0 0 141 283" fill="none" xmlns="http://www.w3.org/2000/svg">
<path fill-rule="evenodd" clip-rule="evenodd" d="M1.57692 20.5939C1.57692 9.2202 10.7971 0 22.1708 0H118.829C130.203 0 139.423 9.2202 139.423 20.5939V85.365H140.087C140.454 85.365 140.752 85.6624 140.752 86.0293V118.249C140.752 118.616 140.454 118.913 140.087 118.913H139.423V262.406C139.423 273.78 130.203 283 118.829 283H22.1708C10.7971 283 1.57692 273.78 1.57692 262.406V126.885C1.21002 126.885 0.912598 126.588 0.912598 126.221V105.959C0.912598 105.592 1.21002 105.295 1.57692 105.295V99.6479C1.21002 99.6479 0.912598 99.3505 0.912598 98.9836V78.7218C0.912598 78.3549 1.21002 78.0575 1.57692 78.0575V69.0892C1.21002 69.0892 0.912598 68.7918 0.912598 68.4249V58.7923C0.912598 58.4254 1.21002 58.1279 1.57692 58.1279V20.5939Z" fill="#303032"/>
</svg>
