<svg width="768" height="100" viewBox="0 0 768 100" fill="none" xmlns="http://www.w3.org/2000/svg">
<g clip-path="url(#clip0_67_953)">
<rect width="768" height="100" fill="white"/>
<path d="M70 0H698" stroke="#E5E7EB" stroke-width="2"/>
<path d="M70 100H698" stroke="#E5E7EB" stroke-width="2"/>
<path fill-rule="evenodd" clip-rule="evenodd" d="M136.896 35.0153C135.631 35.1372 134.146 35.87 133.104 36.8865C131.989 37.9739 131.235 39.4855 131.103 40.9C131.083 41.1172 131.092 41.6341 131.119 41.7785L131.137 41.8761L131.263 41.8939C131.446 41.9199 131.897 41.9043 132.129 41.8639C133.013 41.7098 133.933 41.2747 134.756 40.6222C135.005 40.4249 135.465 39.9594 135.691 39.6756C136.021 39.2627 136.301 38.8213 136.527 38.3582C136.856 37.6838 137.051 37.0458 137.157 36.2944C137.188 36.0772 137.203 35.4005 137.18 35.2258C137.149 34.9846 137.155 34.9987 137.085 35.0009C137.052 35.002 136.967 35.0085 136.896 35.0153ZM136.33 42.2547C135.989 42.2748 135.527 42.3492 135.122 42.4493C134.589 42.581 134.189 42.717 133.248 43.0861C132.485 43.3855 132.249 43.469 131.942 43.5467C131.552 43.6453 131.21 43.6428 130.789 43.5384C130.491 43.4645 130.273 43.387 129.489 43.0762C128.735 42.7772 128.46 42.6776 128.103 42.5744C127.234 42.323 126.541 42.2671 125.666 42.3778C124.723 42.4972 123.811 42.8098 122.988 43.2954C121.387 44.2394 120.191 45.7641 119.547 47.6819C119.072 49.0984 118.905 50.7042 119.051 52.4688C119.184 54.0846 119.579 55.7996 120.192 57.4236C120.585 58.466 121.117 59.5641 121.646 60.4243C122.129 61.2107 123.102 62.5311 123.707 63.2201C124.832 64.5016 125.875 65.0474 127.041 64.9642C127.655 64.9204 128.044 64.811 128.989 64.4168C129.598 64.1624 129.853 64.0673 130.168 63.9762C131.121 63.7005 132.198 63.6763 133.131 63.9095C133.522 64.0071 133.747 64.0884 134.412 64.3727C135.238 64.7253 135.554 64.8249 136.073 64.8963C136.304 64.928 136.799 64.9403 136.996 64.9192C137.904 64.8219 138.733 64.3709 139.558 63.5253C140.061 63.0093 140.57 62.3606 141.302 61.3025C142.109 60.1361 142.828 58.7122 143.274 57.3943C143.41 56.9938 143.411 56.99 143.367 56.9765C143.22 56.931 142.656 56.6215 142.36 56.4238C140.669 55.2937 139.647 53.6646 139.427 51.7442C139.243 50.1469 139.595 48.6277 140.45 47.331C140.945 46.5794 141.661 45.8627 142.43 45.3491C142.528 45.2832 142.609 45.2222 142.609 45.2135C142.609 45.1888 142.408 44.9198 142.234 44.7111C141 43.2356 139.257 42.3877 137.193 42.2596C136.971 42.2458 136.523 42.2433 136.33 42.2547Z" fill="#2D2D2D"/>
<path fill-rule="evenodd" clip-rule="evenodd" d="M230.874 41.5739C230.466 41.6837 228.218 42.2849 225.881 42.91C223.543 43.5351 220.998 44.2157 220.227 44.4225C219.455 44.6292 217.338 45.1956 215.522 45.6811C205.671 48.3152 197.24 50.571 196.167 50.8598C194.708 51.2524 194.112 51.3394 193.154 51.2999C191.669 51.2387 190.459 50.7756 189.59 49.936C188.675 49.0523 188.257 47.8977 188.318 46.4236C188.364 45.2916 188.673 44.1277 189.279 42.7944C189.423 42.478 189.537 42.2152 189.532 42.2104C189.527 42.2056 189.295 42.4754 189.017 42.8101C185.794 46.6949 183.884 50.1119 183.457 52.7584C183.364 53.3348 183.373 54.2754 183.477 54.7817C183.691 55.8326 184.246 56.6288 185.272 57.3556C187.356 58.8316 189.908 58.9909 193.344 57.8593C194.673 57.4216 196.298 56.7589 202.336 54.1913C203.165 53.839 204.66 53.2039 205.659 52.7798C206.657 52.3556 207.595 51.9565 207.743 51.8926C207.89 51.8288 209.153 51.2895 210.549 50.6941C214.151 49.1578 220.956 46.2484 228.646 42.9571C230.325 42.2382 231.735 41.6159 231.778 41.5744C231.875 41.4802 231.838 41.367 231.711 41.3712C231.659 41.3729 231.283 41.4641 230.874 41.5739Z" fill="#2D2D2D"/>
<path fill-rule="evenodd" clip-rule="evenodd" d="M275.025 44.4275C273.753 44.527 272.838 44.9568 272.355 45.6823C272.06 46.1257 271.933 46.5766 271.914 47.247C271.903 47.6272 271.922 47.8584 271.987 48.1378C272.147 48.8299 272.61 49.3944 273.506 49.9881C273.825 50.1999 274.05 50.3322 274.792 50.7454C275.722 51.263 276.002 51.45 276.305 51.7533C276.527 51.9755 276.625 52.1321 276.675 52.3458C276.735 52.5997 276.697 52.9536 276.583 53.1931C276.425 53.5261 276.129 53.6826 275.658 53.682C275.114 53.6813 274.755 53.4407 274.64 52.9996C274.617 52.9111 274.611 52.7675 274.611 52.3113V51.7348H273.222H271.833V52.2168C271.833 52.7361 271.852 53.0131 271.909 53.2908C272.138 54.4029 272.924 55.128 274.215 55.416C275.141 55.6226 276.336 55.5998 277.202 55.3591C277.746 55.208 278.181 54.9729 278.519 54.6478C278.959 54.2242 279.173 53.7649 279.268 53.0385C279.314 52.6848 279.314 51.9374 279.267 51.6396C279.141 50.8326 278.676 50.2271 277.682 49.578C277.353 49.3631 277.06 49.1951 276.315 48.7939C275.396 48.2997 275.062 48.0822 274.82 47.8203C274.626 47.6111 274.554 47.4193 274.554 47.1131C274.554 46.5252 274.908 46.1768 275.505 46.1778C275.911 46.1784 276.208 46.3288 276.358 46.6108C276.461 46.8029 276.476 46.9013 276.476 47.3519V47.7571H277.77H279.065L279.064 47.3622C279.064 46.5929 278.999 46.2128 278.797 45.8084C278.418 45.05 277.623 44.5996 276.408 44.4547C276.108 44.4189 275.33 44.4036 275.025 44.4275ZM308.697 44.4842C307.303 44.5928 306.355 45.0846 305.913 45.9283C305.82 46.1053 305.726 46.3571 305.682 46.5448C305.56 47.0706 305.564 47.7544 305.69 48.2363C305.86 48.8837 306.356 49.4618 307.232 50.0307C307.494 50.2008 307.769 50.3618 308.337 50.678C308.614 50.8317 308.969 51.0349 309.128 51.1296C309.776 51.5175 310.145 51.8624 310.279 52.2061C310.338 52.358 310.351 52.701 310.306 52.9096C310.221 53.2969 310.016 53.5159 309.649 53.6124C309.483 53.6559 309.131 53.6564 308.969 53.6134C308.697 53.541 308.47 53.3704 308.368 53.1619C308.276 52.9734 308.26 52.8427 308.26 52.2534L308.26 51.7158H306.887H305.515L305.525 52.339C305.533 52.8554 305.541 52.9983 305.573 53.1717C305.779 54.2845 306.506 55.012 307.724 55.3245C308.687 55.5716 309.96 55.5589 310.878 55.2931C311.425 55.1345 311.818 54.9143 312.164 54.5713C312.709 54.0314 312.912 53.4079 312.911 52.2772C312.911 51.7988 312.89 51.6033 312.807 51.2991C312.646 50.7057 312.116 50.1043 311.276 49.5608C310.996 49.3796 310.664 49.1901 309.986 48.8255C309.036 48.3141 308.711 48.1028 308.469 47.8381C308.234 47.5822 308.155 47.2715 308.231 46.9105C308.327 46.4609 308.655 46.2163 309.164 46.2161C309.545 46.216 309.848 46.3739 309.998 46.6517C310.095 46.8289 310.109 46.9152 310.119 47.3622L310.129 47.7762H311.402H312.675V47.3392C312.675 47.0988 312.665 46.8141 312.654 46.7064C312.517 45.4359 311.645 44.7018 310.049 44.5128C309.74 44.4762 309.001 44.4606 308.697 44.4842ZM339.957 44.4766C339.716 44.5007 339.317 44.5668 339.115 44.6164C338.509 44.7648 338.055 45.0053 337.681 45.3774C337.248 45.8077 337.035 46.2683 336.919 47.0244C336.886 47.2386 336.872 52.2157 336.903 52.6103C336.931 52.9699 336.965 53.163 337.045 53.4191C337.446 54.7016 338.786 55.4006 340.737 55.3447C342.716 55.2881 343.915 54.4749 344.154 53.029C344.218 52.6431 344.23 52.2884 344.23 50.7749V49.2987H342.393H340.557V50.06V50.8213H341.09H341.622L341.622 51.7205C341.622 52.7025 341.614 52.7915 341.515 52.9744C341.343 53.2895 341.032 53.4621 340.604 53.4805C340.032 53.5049 339.625 53.2474 339.496 52.7795C339.465 52.6658 339.462 52.4801 339.462 49.9553C339.462 47.4092 339.464 47.2442 339.497 47.1052C339.617 46.5939 339.977 46.3239 340.538 46.3239C340.88 46.3239 341.114 46.4091 341.311 46.6049C341.541 46.8344 341.584 46.9842 341.598 47.6096L341.608 48.0616H342.909H344.211V47.7313C344.211 46.5874 343.999 45.9253 343.46 45.3875C342.991 44.9205 342.407 44.6612 341.499 44.5181C341.294 44.4859 341.145 44.4782 340.642 44.474C340.307 44.4712 339.999 44.4724 339.957 44.4766ZM315.328 44.7566C315.323 44.7708 315.322 46.5887 315.326 48.7963C315.332 52.3728 315.336 52.8321 315.363 53.0125C315.47 53.7114 315.676 54.1515 316.089 54.5613C316.642 55.1089 317.404 55.3807 318.579 55.4489C319.372 55.4948 320.181 55.4019 320.777 55.1966C321.875 54.8177 322.474 54.0279 322.571 52.8311C322.584 52.6719 322.591 51.2065 322.591 48.6584V44.7311H321.287H319.984L319.979 48.7706L319.974 52.8101L319.931 52.9352C319.823 53.2526 319.611 53.4565 319.288 53.5549C319.116 53.6071 318.759 53.6018 318.595 53.5445C318.302 53.4426 318.12 53.2663 317.997 52.967L317.956 52.8672L317.947 48.8039L317.937 44.7406L316.638 44.7357C315.558 44.7316 315.337 44.7351 315.328 44.7566ZM282.901 44.8024C282.868 44.9603 281.006 55.094 281.006 55.1156C281.006 55.1372 281.237 55.1415 282.394 55.1415H283.783L283.794 55.0796C283.816 54.9523 285.193 45.744 285.193 45.7233C285.193 45.7114 285.21 45.7017 285.231 45.7017C285.252 45.7017 285.269 45.7124 285.269 45.7255C285.269 45.7488 286.609 54.9569 286.63 55.0796L286.641 55.1415H288.03H289.419L289.409 55.0987C289.396 55.0444 287.515 44.7751 287.515 44.7607C287.515 44.7549 286.479 44.7501 285.213 44.7501H282.912L282.901 44.8024ZM291.714 44.888C291.704 45.0099 291.49 54.822 291.492 55.0511L291.492 55.1415H292.787H294.081L294.081 54.3469C294.081 52.3742 294.14 45.8066 294.157 45.7893C294.167 45.7791 294.18 45.776 294.187 45.7823C294.193 45.7886 294.583 47.8778 295.053 50.4248C295.523 52.9719 295.912 55.0751 295.918 55.0987L295.928 55.1415H297.238H298.548L298.568 55.0416C298.579 54.9866 298.966 52.8862 299.43 50.374C299.893 47.8618 300.279 45.7982 300.288 45.7883C300.298 45.7769 300.31 45.7769 300.321 45.7883C300.333 45.8018 300.403 53.9107 300.4 54.9655L300.399 55.1415H301.694H302.989L302.978 54.8037C302.972 54.6179 302.925 52.4618 302.873 50.0124C302.822 47.563 302.774 45.377 302.768 45.1545L302.755 44.7501L300.649 44.7501L298.544 44.7501L297.906 48.7206C297.306 52.4642 297.256 52.7505 297.213 52.703C297.21 52.6991 296.92 50.9102 296.57 48.7277L295.934 44.7596L293.829 44.7548L291.724 44.7499L291.714 44.888ZM325.483 49.8982V55.0463H326.749H328.015L328.015 54.8132C328.014 54.685 327.984 52.8244 327.948 50.6785C327.912 48.5327 327.882 46.732 327.882 46.6771C327.881 46.5201 327.927 46.5453 327.984 46.7342C328.01 46.8205 328.272 47.6877 328.566 48.6611C328.86 49.6346 329.415 51.4696 329.798 52.7388L330.495 55.0465L332.333 55.0417L334.171 55.0368L334.176 49.8935L334.181 44.7501H332.896H331.611L331.622 45.1355C331.628 45.3475 331.657 47.0368 331.688 48.8895C331.718 50.7423 331.747 52.4059 331.753 52.5865C331.761 52.8891 331.759 52.9148 331.729 52.9148C331.701 52.9148 331.501 52.2464 330.518 48.8657C329.871 46.6388 329.337 44.8017 329.332 44.7834C329.324 44.7519 329.216 44.7501 327.403 44.7501H325.483V49.8982Z" fill="#2D2D2D"/>
<path fill-rule="evenodd" clip-rule="evenodd" d="M392.902 46.7962V49.1323L398.485 49.1299C398.313 50.4183 397.879 51.3616 397.219 52.0219C396.404 52.8362 395.133 53.7324 392.902 53.7324C389.461 53.7324 386.77 50.9594 386.77 47.5187C386.77 44.0778 389.461 41.3048 392.902 41.3048C394.758 41.3048 396.114 42.0347 397.114 42.9731L398.763 41.3247C397.368 39.9916 395.511 38.9688 392.904 38.9688C388.192 38.9688 384.23 42.8068 384.23 47.5187C384.23 52.2306 388.192 56.0686 392.904 56.0686C395.446 56.0686 397.365 55.2344 398.867 53.6704C400.411 52.1263 400.89 49.959 400.89 48.2063C400.89 47.685 400.851 47.2034 400.774 46.7962H392.902ZM439.998 55.7332V39.5967H437.639V55.7332H439.998ZM407.352 56.0711C410.396 56.0711 412.876 53.735 412.876 50.5647C412.876 47.3722 410.396 45.0585 407.352 45.0585C404.309 45.0585 401.829 47.3722 401.829 50.5647C401.829 53.735 404.309 56.0711 407.352 56.0711ZM407.352 47.2282C409.021 47.2282 410.458 48.5837 410.458 50.5647C410.458 52.5234 409.021 53.9014 407.352 53.9014C405.684 53.9014 404.247 52.5259 404.247 50.5647C404.247 48.5837 405.684 47.2282 407.352 47.2282ZM419.269 56.0711C422.312 56.0711 424.792 53.735 424.792 50.5647C424.792 47.3722 422.312 45.0585 419.269 45.0585C416.225 45.0585 413.745 47.3747 413.745 50.5647C413.745 53.735 416.225 56.0711 419.269 56.0711ZM419.269 47.2282C420.937 47.2282 422.374 48.5837 422.374 50.5647C422.374 52.5234 420.937 53.9014 419.269 53.9014C417.6 53.9014 416.163 52.5259 416.163 50.5647C416.163 48.5837 417.6 47.2282 419.269 47.2282ZM436.212 45.3936V55.2766C436.212 59.3431 433.814 61.0039 430.979 61.0039C428.31 61.0039 426.704 59.219 426.098 57.7591L428.203 56.8829C428.578 57.7791 429.497 58.8367 430.976 58.8367C432.791 58.8367 433.916 57.7169 433.916 55.6094V54.8174H433.831C433.29 55.4852 432.247 56.0686 430.932 56.0686C428.178 56.0686 425.656 53.6705 425.656 50.5847C425.656 47.4765 428.178 45.0585 430.932 45.0585C432.245 45.0585 433.288 45.6419 433.831 46.2898H433.916V45.3936H436.212ZM434.087 50.5847C434.087 48.6458 432.793 47.2282 431.148 47.2282C429.479 47.2282 428.082 48.6458 428.082 50.5847C428.082 52.5036 429.479 53.9014 431.148 53.9014C432.793 53.9014 434.087 52.5036 434.087 50.5847ZM449.188 52.3771L451.065 53.6284C450.459 54.5246 449 56.0688 446.477 56.0688C443.349 56.0688 441.013 53.6508 441.013 50.5625C441.013 47.288 443.369 45.0561 446.207 45.0561C449.064 45.0561 450.462 47.3302 450.919 48.559L451.169 49.1847L443.809 52.2331C444.372 53.3379 445.248 53.9015 446.477 53.9015C447.709 53.9015 448.563 53.2957 449.188 52.3771ZM443.411 50.3961L448.332 48.353C448.061 47.6653 447.247 47.1862 446.289 47.1862C445.06 47.1862 443.349 48.271 443.411 50.3961Z" fill="#2D2D2D"/>
<path fill-rule="evenodd" clip-rule="evenodd" d="M512.927 37.6915C511.259 38.6494 509.878 39.4392 509.858 39.4467C509.838 39.4541 511.746 42.8033 514.098 46.8894L518.374 54.3186H522.483H526.592L526.493 54.1419C526.262 53.7322 516.051 36.0835 516.007 36.0198C515.965 35.9577 515.617 36.1465 512.927 37.6915ZM505.883 44.1601C504.202 45.1286 502.832 45.9411 502.838 45.9655C502.845 45.9899 503.934 47.8841 505.26 50.1747L507.67 54.3394L507.67 55.202L507.67 56.0646H508.543H509.416V55.1919V54.3191L512.618 54.3085L515.82 54.2978L512.385 48.3532C510.497 45.0836 508.948 42.4064 508.945 42.4038C508.941 42.4012 507.563 43.1915 505.883 44.1601ZM498.693 50.453C497.037 51.4124 495.668 52.2117 495.651 52.2291C495.634 52.2466 495.884 52.7238 496.208 53.2897L496.796 54.3186H500.887C504.142 54.3186 504.973 54.308 504.957 54.2667C504.908 54.1388 501.769 48.7281 501.739 48.7189C501.72 48.7132 500.35 49.4935 498.693 50.453ZM505.051 55.7955V57.2723L504.75 57.1074C503.688 56.5265 502.413 56.5108 501.289 57.0648C500.555 57.4265 500.026 57.9493 499.67 58.6628C499.371 59.2634 499.295 59.5957 499.299 60.2841C499.303 60.9793 499.383 61.3355 499.665 61.9053C500.284 63.1563 501.572 63.9625 502.952 63.9625C503.547 63.9625 504.128 63.8161 504.707 63.5207L505.051 63.3451V63.571V63.7968H505.924H506.797V59.0577V54.3186H505.924H505.051V55.7955ZM515.86 55.7892V57.2598L515.558 57.0991C514.275 56.4147 512.687 56.5411 511.534 57.4196C510.855 57.9361 510.359 58.7204 510.182 59.5556C510.113 59.8786 510.106 60.5661 510.167 60.9104C510.514 62.8696 512.32 64.1885 514.295 63.9248C514.712 63.8691 515.366 63.6496 515.661 63.4664L515.86 63.343V63.5699V63.7968H516.733H517.606V59.0577V54.3186H516.733H515.86V55.7892ZM494.34 56.6877C492.938 56.8858 491.765 57.8609 491.341 59.1824C490.797 60.8734 491.582 62.7496 493.168 63.5508C494.247 64.0955 495.446 64.0965 496.54 63.5535L496.945 63.3522V63.5745V63.7968H497.797H498.649V60.2633V56.7297H497.797H496.945V56.9965V57.2634L496.55 57.0624C496.313 56.9417 496.009 56.8272 495.79 56.7756C495.365 56.6758 494.707 56.6359 494.34 56.6877ZM521.335 56.6891C520.426 56.8327 519.521 57.3482 518.981 58.0292C518.702 58.381 518.466 58.8367 518.328 59.2864C518.225 59.6229 518.214 59.7211 518.215 60.2633C518.217 60.9608 518.292 61.3125 518.556 61.8638C519.035 62.8632 519.903 63.5709 521.015 63.8677C521.397 63.9699 522.342 63.9677 522.733 63.8637C523.092 63.7681 523.441 63.6267 523.713 63.4666L523.924 63.3417V63.5693V63.7968H524.797H525.67V60.2633V56.7297H524.797H523.924V57.005C523.924 57.2202 523.913 57.2711 523.873 57.2379C523.726 57.1182 523.113 56.853 522.806 56.7762C522.404 56.6759 521.688 56.6334 521.335 56.6891ZM529.017 56.6739C527.752 56.8241 526.897 57.4123 526.62 58.3239C526.548 58.5591 526.536 58.6832 526.552 59.0398C526.57 59.4349 526.584 59.4977 526.727 59.7868C527.106 60.5538 527.657 60.8279 529.395 61.1148C530.247 61.2554 530.534 61.3481 530.699 61.5354C530.96 61.8335 530.802 62.2716 530.347 62.5052C530.159 62.6017 530.093 62.612 529.661 62.612C529.287 62.612 529.135 62.5941 528.961 62.5298C528.557 62.3799 528.285 62.0666 528.223 61.6805L528.196 61.5104H527.286H526.377V61.6472C526.377 61.8685 526.493 62.2512 526.653 62.5543C527.154 63.5083 528.366 64.0295 529.893 63.9478C531.604 63.8563 532.607 63.0855 532.723 61.7727C532.82 60.6707 532.094 59.8678 530.735 59.5765C530.476 59.5209 530.002 59.429 529.682 59.3723C528.955 59.2436 528.702 59.1626 528.516 58.9992C528.331 58.8371 528.29 58.6371 528.396 58.4131C528.454 58.2921 528.523 58.2317 528.702 58.1478C528.916 58.0475 528.977 58.0392 529.495 58.0392C530.032 58.0392 530.065 58.0442 530.25 58.1532C530.482 58.2893 530.614 58.488 530.653 58.7564L530.681 58.9538L531.564 58.965C532.572 58.9778 532.49 59.0183 532.383 58.5627C532.254 58.0181 531.818 57.4249 531.328 57.1269C530.753 56.7777 529.768 56.5847 529.017 56.6739ZM507.67 60.2633V63.7968H508.543H509.416V60.2633V56.7297H508.543H507.67V60.2633ZM495.41 58.3349C496.21 58.5724 496.785 59.2197 496.91 60.0253C497.006 60.6435 496.79 61.245 496.305 61.7109C495.358 62.6197 493.876 62.4426 493.159 61.3349C492.94 60.9954 492.857 60.6526 492.878 60.1721C492.893 59.8289 492.913 59.744 493.047 59.4624C493.477 58.5555 494.503 58.066 495.41 58.3349ZM503.516 58.3342C503.89 58.4441 504.206 58.6378 504.468 58.9172C505.248 59.7517 505.225 60.9299 504.411 61.7109C503.62 62.4704 502.429 62.4902 501.627 61.7573C501.243 61.4063 501.043 61.0261 500.977 60.5198C500.853 59.5663 501.523 58.5905 502.478 58.3337C502.779 58.2528 503.24 58.253 503.516 58.3342ZM514.576 58.41C515.348 58.7234 515.86 59.4787 515.86 60.3048C515.86 61.278 515.151 62.0965 514.162 62.266C513.514 62.3772 512.888 62.1694 512.413 61.6861C511.968 61.2334 511.806 60.8087 511.834 60.1682C511.849 59.8311 511.87 59.7431 511.999 59.472C512.257 58.9315 512.673 58.5587 513.24 58.3598C513.618 58.2272 514.177 58.2482 514.576 58.41ZM522.431 58.3349C522.801 58.4447 523.055 58.5964 523.321 58.8656C523.971 59.5243 524.107 60.4082 523.686 61.239C523.53 61.5458 523.111 61.944 522.781 62.0985C521.437 62.7277 519.889 61.7379 519.893 60.2508C519.894 59.4028 520.564 58.5648 521.43 58.3252C521.696 58.2518 522.166 58.2563 522.431 58.3349Z" fill="#2D2D2D"/>
<path fill-rule="evenodd" clip-rule="evenodd" d="M610.544 46.0204L610.544 46.1461C610.545 47.0128 610.546 47.7487 610.104 48.53C609.729 49.1956 609.133 49.605 608.474 49.605C607.57 49.605 607.04 48.9127 607.04 47.8909C607.04 45.8739 608.838 45.5078 610.544 45.5078V46.0204ZM612.919 51.7884C612.763 51.9282 612.538 51.9382 612.363 51.845C611.697 51.2898 611.495 50.9877 611.186 50.5264L611.186 50.5263C611.132 50.4456 611.075 50.36 611.011 50.2673C609.72 51.592 608.802 51.9881 607.129 51.9881C605.145 51.9881 603.605 50.7599 603.605 48.3003C603.605 46.3798 604.639 45.0718 606.116 44.4328C607.188 43.9584 608.616 43.8115 609.854 43.6843C610.092 43.6597 610.324 43.636 610.544 43.6107V43.3045C610.544 43.2472 610.545 43.1889 610.545 43.1298V43.1297C610.549 42.6083 610.554 42.0268 610.256 41.5904C609.971 41.1544 609.421 40.9746 608.935 40.9746C608.037 40.9746 607.239 41.4373 607.043 42.3958C607.003 42.6089 606.848 42.8185 606.633 42.8285L604.35 42.5822C604.158 42.539 603.943 42.3825 603.999 42.0863C604.523 39.3038 607.027 38.4651 609.266 38.4651C610.412 38.4651 611.909 38.7713 612.813 39.6433C613.867 40.6316 613.859 41.9237 613.851 43.3385V43.3397C613.851 43.4635 613.85 43.5883 613.85 43.7139V47.4016C613.85 48.3912 614.214 48.8846 614.599 49.4054C614.645 49.4679 614.691 49.5308 614.738 49.595C614.887 49.808 614.92 50.0643 614.728 50.2241C614.247 50.6268 613.393 51.3757 612.922 51.795L612.919 51.7884ZM586.123 51.8216H588.478C588.729 51.8216 588.932 51.6253 588.932 51.3823V44.9453L588.931 44.7921C588.929 43.4037 588.926 41.597 590.558 41.597C592.06 41.597 592.034 43.2045 592.013 44.5134V44.5135V44.5136V44.5137V44.5138C592.011 44.6624 592.009 44.8072 592.009 44.9453L592.012 51.3823C592.012 51.6153 592.197 51.805 592.436 51.8216H594.788C595.039 51.8216 595.241 51.6253 595.241 51.3823V44.9453L595.241 44.7783C595.239 44.0989 595.237 43.1834 595.46 42.6188C595.702 42.0064 596.298 41.6236 596.868 41.6236C597.55 41.6236 598.077 41.8533 598.252 42.6687C598.343 43.0599 598.33 43.9642 598.322 44.5695C598.32 44.7162 598.318 44.8453 598.318 44.9453V51.3823C598.318 51.6153 598.507 51.805 598.742 51.8216H601.094C601.346 51.8216 601.548 51.6253 601.548 51.3823L601.551 43.7171C601.551 43.5301 601.554 43.3394 601.558 43.1467C601.576 41.9987 601.596 40.7845 600.958 39.9095C600.299 38.9909 599.219 38.5815 598.232 38.5815C596.844 38.5815 595.549 39.2971 594.98 40.8315C594.317 39.2971 593.396 38.5815 591.922 38.5815C590.472 38.5815 589.395 39.2971 588.822 40.8315H588.779V39.2439C588.763 39.0242 588.58 38.8478 588.352 38.8378H586.156C585.904 38.8378 585.702 39.0309 585.702 39.2738V51.4189C585.719 51.6352 585.898 51.805 586.123 51.8216ZM616.715 40.9813V39.2439C616.715 38.981 616.914 38.8046 617.152 38.8046H624.893C625.141 38.8046 625.34 38.9843 625.34 39.2439V40.7317C625.337 40.9813 625.128 41.3075 624.757 41.8234L620.746 47.578C622.237 47.5414 623.81 47.7644 625.161 48.5299C625.466 48.703 625.549 48.956 625.572 49.2056V51.0595C625.572 51.3124 625.294 51.6086 625.002 51.4555C622.621 50.2008 619.458 50.0643 616.824 51.4689C616.556 51.6153 616.275 51.3224 616.275 51.0695V49.3088C616.275 49.0259 616.278 48.5433 616.559 48.1139L621.206 41.4173H617.162C616.914 41.4173 616.715 41.2409 616.715 40.9813ZM616.64 54.1953C618.076 54.0242 621.216 53.6498 621.776 54.3713C622.342 55.0997 621.148 58.0953 620.614 59.4345V59.4346L620.613 59.437C620.451 59.843 620.799 60.0061 621.163 59.6999C623.538 57.7063 624.148 53.5292 623.664 52.9268C623.18 52.3277 619.034 51.8118 616.506 53.5991C616.115 53.872 616.182 54.2515 616.616 54.1982L616.64 54.1953ZM603.589 61.5072C609.107 61.5072 615.516 59.7599 619.938 56.4848C620.67 55.9389 620.044 55.1268 619.295 55.4463C614.34 57.5598 608.951 58.5783 604.052 58.5783C596.789 58.5783 589.757 56.578 584.07 53.253C583.573 52.9601 583.202 53.4726 583.616 53.8487C588.886 58.6316 595.851 61.5072 603.589 61.5072ZM632.004 38.5815C635.499 38.5815 637.39 41.597 637.39 45.4312C637.39 49.1357 635.3 52.0746 632.004 52.0746C628.573 52.0746 626.705 49.0591 626.705 45.3014C626.705 41.5205 628.596 38.5815 632.004 38.5815ZM632.024 41.0611C630.289 41.0611 630.179 43.4376 630.179 44.9187V44.9732C630.179 46.4792 630.179 49.5717 632.004 49.5717C633.83 49.5717 633.916 47.0155 633.916 45.4579C633.916 44.4327 633.873 43.2079 633.565 42.236C633.3 41.3906 632.773 41.0611 632.024 41.0611ZM639.576 51.8216H641.921C642.173 51.8216 642.378 51.6253 642.381 51.3823V44.8421C642.381 44.0234 642.424 43.2845 642.756 42.5422C643.017 41.9565 643.544 41.5704 644.117 41.5704C645.618 41.5704 645.604 43.2261 645.593 44.5254V44.5275C645.592 44.6352 645.591 44.7405 645.591 44.8421V51.4389C645.614 51.6452 645.793 51.805 646.008 51.8216H648.37C648.602 51.8216 648.797 51.6519 648.824 51.4389V43.7937C648.824 42.6188 648.824 40.9846 648.208 40.0127C647.545 38.9643 646.515 38.5815 645.458 38.5815C643.832 38.5815 642.908 39.3737 642.249 41.0345H642.206V39.1773C642.159 38.9876 641.99 38.8478 641.785 38.8378H639.602C639.364 38.8378 639.168 39.0109 639.149 39.2339L639.152 51.3823C639.152 51.6153 639.341 51.805 639.576 51.8216ZM579.671 46.1462C579.671 46.1046 579.671 46.0627 579.671 46.0205V45.5079C577.968 45.5079 576.17 45.8741 576.17 47.891C576.17 48.9128 576.696 49.6051 577.6 49.6051C578.263 49.6051 578.856 49.1957 579.23 48.5301C579.673 47.7488 579.672 47.0129 579.671 46.1462ZM581.489 51.8451C581.665 51.9383 581.89 51.9283 582.045 51.7885L582.052 51.7952C582.522 51.3758 583.377 50.6269 583.857 50.2242C584.049 50.0644 584.016 49.8082 583.864 49.5951C583.818 49.5309 583.771 49.468 583.725 49.4055C583.341 48.8847 582.976 48.3913 582.976 47.4018V43.714C582.976 43.588 582.977 43.4628 582.978 43.3386C582.986 41.9238 582.993 40.6317 581.939 39.6434C581.035 38.7714 579.538 38.4652 578.392 38.4652C576.153 38.4652 573.652 39.3039 573.126 42.0864C573.073 42.3826 573.285 42.5391 573.477 42.5823L575.762 42.8286C575.974 42.8187 576.13 42.609 576.17 42.396C576.365 41.4374 577.167 40.9748 578.064 40.9748C578.548 40.9748 579.098 41.1545 579.386 41.5905C579.68 42.0266 579.676 42.6074 579.672 43.1285C579.671 43.1881 579.671 43.2469 579.671 43.3046V43.6108C579.45 43.6361 579.219 43.6599 578.98 43.6844C577.742 43.8117 576.314 43.9585 575.242 44.4329C573.768 45.0719 572.731 46.38 572.731 48.3004C572.731 50.7601 574.275 51.9882 576.256 51.9882C577.932 51.9882 578.846 51.5921 580.138 50.2675C580.206 50.366 580.267 50.4565 580.324 50.5416C580.628 50.9945 580.831 51.296 581.489 51.8451Z" fill="#2D2D2D"/>
</g>
<defs>
<clipPath id="clip0_67_953">
<rect width="768" height="100" fill="white"/>
</clipPath>
</defs>
</svg>
