<svg width="93" height="20" viewBox="0 0 93 20" fill="none" xmlns="http://www.w3.org/2000/svg">
<path d="M5.11497 18.7353C5.08289 18.4947 5.08289 18.238 5.11497 17.9652C5.91711 17.885 6.48663 17.8128 6.82353 17.7487C7.16043 17.6684 7.36898 17.508 7.4492 17.2674C7.52941 17.0267 7.56952 16.6176 7.56952 16.0401V2.90107H5.8369C4.98663 2.90107 4.31283 3.02139 3.81551 3.26203C3.33422 3.48663 2.94118 3.83155 2.63636 4.29679C2.34759 4.76203 2.05882 5.35561 1.77005 6.07754C1.51337 6.10963 1.25668 6.10963 1 6.07754C1.09626 5.30749 1.18449 4.56952 1.26471 3.86364C1.36096 3.15775 1.44118 2.47594 1.50535 1.81818C2.54813 1.88235 3.70321 1.92246 4.97059 1.9385C6.23797 1.9385 7.55348 1.9385 8.91711 1.9385C10.2968 1.9385 11.6203 1.9385 12.8877 1.9385C14.1711 1.92246 15.3262 1.88235 16.3529 1.81818C16.4171 2.45989 16.4813 3.14171 16.5455 3.86364C16.6096 4.56952 16.6898 5.30749 16.7861 6.07754C16.5134 6.10963 16.2487 6.10963 15.992 6.07754C15.6872 5.33957 15.3824 4.73797 15.0775 4.27273C14.7727 3.80749 14.3797 3.46257 13.8984 3.23797C13.4332 3.01337 12.7754 2.90107 11.9251 2.90107H10.2166V15.7273C10.2166 16.2246 10.2326 16.6176 10.2647 16.9064C10.2968 17.1952 10.385 17.4037 10.5294 17.5321C10.6898 17.6604 10.9385 17.7567 11.2754 17.8209C11.6123 17.869 12.0775 17.9171 12.6711 17.9652C12.7193 18.2219 12.7193 18.4786 12.6711 18.7353C12.3342 18.7353 11.9251 18.7273 11.4438 18.7112C10.9786 18.7112 10.5134 18.7112 10.0481 18.7112C9.58289 18.6952 9.18984 18.6872 8.86898 18.6872C8.56417 18.6872 8.17914 18.6952 7.7139 18.7112C7.26471 18.7112 6.79947 18.7112 6.31818 18.7112C5.85294 18.7273 5.45187 18.7353 5.11497 18.7353Z" fill="#134E4A"/>
<path d="M16.2836 18.7353C16.2354 18.4786 16.2354 18.2299 16.2836 17.9893C16.829 17.9572 17.2301 17.9091 17.4868 17.8449C17.7435 17.7647 17.9119 17.6043 17.9921 17.3636C18.0723 17.123 18.1124 16.738 18.1124 16.2086V10.8182C18.1124 10.1925 18.0804 9.72727 18.0162 9.42246C17.9681 9.11765 17.8157 8.90909 17.559 8.79679C17.3183 8.66845 16.9012 8.56417 16.3076 8.48396C16.2595 8.25936 16.2595 8.0508 16.3076 7.85829C16.9493 7.72995 17.575 7.58556 18.1846 7.42513C18.7943 7.24866 19.436 7.02406 20.1098 6.75134L20.5189 6.89572V9.01337C21.6419 7.58556 22.7889 6.87166 23.96 6.87166C24.5215 6.87166 24.9386 7.02406 25.2114 7.32888C25.4841 7.61765 25.6205 7.94652 25.6205 8.31551C25.6205 8.74866 25.4761 9.08556 25.1873 9.3262C24.8985 9.5508 24.5697 9.6631 24.2007 9.6631C23.8959 9.6631 23.5911 9.58289 23.2862 9.42246C22.9975 9.26203 22.7809 9.01337 22.6365 8.67647C22.0911 8.67647 21.6017 8.89305 21.1686 9.3262C20.7515 9.74331 20.5429 10.2326 20.5429 10.7941V15.9679C20.5429 16.5936 20.575 17.0428 20.6392 17.3155C20.7194 17.5882 20.9119 17.7647 21.2167 17.8449C21.5376 17.9091 22.0509 17.9572 22.7568 17.9893C22.7889 18.2139 22.7889 18.4626 22.7568 18.7353C22.2114 18.7353 21.6499 18.7273 21.0723 18.7112C20.4948 18.6952 19.9012 18.6872 19.2916 18.6872C18.698 18.6872 18.1686 18.6952 17.7034 18.7112C17.2542 18.7273 16.7809 18.7353 16.2836 18.7353Z" fill="#134E4A"/>
<path d="M34.4855 18.9519C33.4267 18.9519 32.7609 18.4225 32.4882 17.3636C31.3491 18.4545 30.186 19 28.9988 19C28.1807 19 27.4828 18.7594 26.9053 18.2781C26.3438 17.7807 26.063 17.0989 26.063 16.2326C26.063 14.115 28.2208 12.7834 32.5363 12.238C32.5363 11.8529 32.5363 11.4599 32.5363 11.0588C32.5523 10.6578 32.5603 10.2326 32.5603 9.78342C32.5603 9.22192 32.3518 8.78877 31.9347 8.48396C31.5336 8.1631 31.0443 8.00267 30.4668 8.00267C30.0497 8.00267 29.6967 8.06684 29.4079 8.19519C29.4079 8.56417 29.3277 8.94118 29.1673 9.3262C29.0069 9.71123 28.7823 10.0401 28.4935 10.3128C28.2208 10.5695 27.8839 10.6979 27.4828 10.6979C27.1299 10.6979 26.8491 10.6016 26.6406 10.4091C26.448 10.2005 26.3518 9.95187 26.3518 9.6631C26.3518 9.27808 26.5283 8.91711 26.8812 8.58021C27.2502 8.22727 27.7154 7.93048 28.2769 7.68984C28.8384 7.43316 29.424 7.23262 30.0336 7.08824C30.6432 6.94385 31.1887 6.87166 31.67 6.87166C32.2636 6.87166 32.809 6.98396 33.3063 7.20856C33.8197 7.41711 34.2288 7.73797 34.5336 8.17112C34.8545 8.58824 35.0149 9.10963 35.0149 9.73529C35.0149 10.1203 35.0069 10.6257 34.9908 11.2513C34.9748 11.861 34.9587 12.5187 34.9427 13.2246C34.9427 13.9144 34.9347 14.5722 34.9186 15.1979C34.9026 15.8235 34.8946 16.3289 34.8946 16.7139C34.8946 17.2273 35.1192 17.484 35.5684 17.484C35.8571 17.484 36.2983 17.3877 36.8919 17.1952C36.9561 17.2754 36.9962 17.3636 37.0122 17.4599C37.0443 17.5561 37.0684 17.6444 37.0844 17.7246C36.6833 18.1578 36.2582 18.4706 35.809 18.6631C35.3759 18.8556 34.9347 18.9519 34.4855 18.9519ZM32.4882 16.7139L32.5363 13.1043C31.0603 13.2968 30.0416 13.6096 29.4801 14.0428C28.9347 14.4759 28.6619 15.0294 28.6619 15.7032C28.6619 16.2647 28.8063 16.6979 29.0951 17.0027C29.3999 17.2914 29.7769 17.4358 30.2261 17.4358C30.5149 17.4358 30.8357 17.3717 31.1887 17.2433C31.5577 17.115 31.9908 16.9385 32.4882 16.7139Z" fill="#134E4A"/>
<path d="M43.8023 18.7353C43.3531 18.7353 42.8878 18.7273 42.4065 18.7112C41.9253 18.6952 41.4039 18.6872 40.8424 18.6872C40.329 18.6872 39.8076 18.6952 39.2782 18.7112C38.7648 18.7273 38.2675 18.7353 37.7862 18.7353C37.7381 18.4786 37.7381 18.2299 37.7862 17.9893C38.3317 17.9572 38.7327 17.9091 38.9894 17.8449C39.2461 17.7647 39.4146 17.6043 39.4948 17.3636C39.575 17.123 39.6151 16.738 39.6151 16.2086V10.8182C39.6151 10.1925 39.591 9.72727 39.5429 9.42246C39.4948 9.11765 39.3424 8.90909 39.0857 8.79679C38.845 8.66845 38.4199 8.56417 37.8103 8.48396C37.7622 8.25936 37.7622 8.0508 37.8103 7.85829C38.5162 7.72995 39.19 7.56952 39.8317 7.37701C40.4734 7.18449 41.091 6.97594 41.6846 6.75134L42.0937 6.89572C42.0777 7.39305 42.0616 7.85829 42.0456 8.29144C42.0456 8.7246 42.0456 9.13369 42.0456 9.51872V15.9679C42.0456 16.5936 42.0777 17.0428 42.1418 17.3155C42.222 17.5882 42.3825 17.7647 42.6231 17.8449C42.8798 17.9091 43.2729 17.9572 43.8023 17.9893C43.8504 18.2299 43.8504 18.4786 43.8023 18.7353ZM38.9894 2.66043C38.9894 2.19519 39.1499 1.80214 39.4707 1.48128C39.8076 1.16043 40.2087 1 40.6739 1C41.1231 1 41.5081 1.16043 41.829 1.48128C42.1659 1.80214 42.3343 2.18717 42.3343 2.63636C42.3343 3.05348 42.1739 3.4385 41.8531 3.79144C41.5322 4.12834 41.1231 4.29679 40.6258 4.29679C40.1766 4.29679 39.7916 4.13636 39.4707 3.81551C39.1499 3.49465 38.9894 3.10963 38.9894 2.66043Z" fill="#134E4A"/>
<path d="M52.4859 18.7353C52.4538 18.4786 52.4538 18.2299 52.4859 17.9893C52.9832 17.9572 53.3522 17.9091 53.5928 17.8449C53.8335 17.7647 53.9939 17.6043 54.0741 17.3636C54.1543 17.123 54.1944 16.738 54.1944 16.2086V11.3476C54.1944 10.385 54.042 9.67112 53.7372 9.20588C53.4484 8.7246 52.8629 8.48396 51.9805 8.48396C51.5153 8.48396 51.0661 8.57219 50.6329 8.74866C50.1998 8.90909 49.7265 9.22192 49.2131 9.68717V15.9679C49.2131 16.5936 49.2452 17.0428 49.3094 17.3155C49.3896 17.5882 49.55 17.7647 49.7907 17.8449C50.0313 17.9091 50.4083 17.9572 50.9217 17.9893C50.9538 18.2299 50.9538 18.4786 50.9217 18.7353C50.4725 18.7353 49.9992 18.7273 49.5019 18.7112C49.0206 18.6952 48.4992 18.6872 47.9377 18.6872C47.4244 18.6872 46.919 18.6952 46.4217 18.7112C45.9244 18.7273 45.4351 18.7353 44.9538 18.7353C44.9056 18.4786 44.9056 18.2299 44.9538 17.9893C45.4992 17.9572 45.9003 17.9091 46.157 17.8449C46.4137 17.7647 46.5821 17.6043 46.6623 17.3636C46.7425 17.123 46.7826 16.738 46.7826 16.2086V10.8182C46.7826 10.1925 46.7506 9.72727 46.6864 9.42246C46.6383 9.11765 46.4859 8.90909 46.2292 8.79679C45.9885 8.66845 45.5714 8.56417 44.9778 8.48396C44.9297 8.25936 44.9297 8.0508 44.9778 7.85829C46.3575 7.58556 47.6249 7.21658 48.78 6.75134L49.1891 6.89572V8.70053C49.927 8.02674 50.649 7.55348 51.3548 7.28075C52.0607 7.00802 52.7345 6.87166 53.3762 6.87166C54.4351 6.87166 55.2452 7.18449 55.8067 7.81016C56.3682 8.43583 56.649 9.33422 56.649 10.5053V15.9679C56.649 16.5936 56.681 17.0428 56.7452 17.3155C56.8254 17.5882 56.9859 17.7647 57.2265 17.8449C57.4671 17.9091 57.8522 17.9572 58.3816 17.9893C58.4137 18.2299 58.4137 18.4786 58.3816 18.7353C57.9003 18.7353 57.427 18.7273 56.9618 18.7112C56.5126 18.6952 55.9832 18.6872 55.3736 18.6872C54.78 18.6872 54.2586 18.6952 53.8094 18.7112C53.3762 18.7273 52.9351 18.7353 52.4859 18.7353Z" fill="#134E4A"/>
<path d="M65.0363 19C63.8972 19 62.9347 18.7353 62.1486 18.2059C61.3625 17.6765 60.7609 16.9706 60.3437 16.0882C59.9427 15.1898 59.7421 14.2032 59.7421 13.1283C59.7421 12.0214 59.9507 10.9947 60.3678 10.0481C60.801 9.1016 61.4266 8.33957 62.2448 7.76203C63.063 7.16845 64.0577 6.87166 65.2288 6.87166C66.6405 6.87166 67.7395 7.29679 68.5256 8.14706C69.3277 8.98128 69.7288 10.0642 69.7288 11.3957C69.7288 11.5561 69.7208 11.7005 69.7047 11.8289C69.7047 11.9412 69.6967 12.0374 69.6806 12.1176L62.1004 12.0455C62.1004 12.1096 62.1004 12.1658 62.1004 12.2139C62.1004 13.7861 62.4614 15.0214 63.1833 15.9198C63.9052 16.8182 64.9159 17.2674 66.2154 17.2674C67.3063 17.2674 68.3812 16.9144 69.44 16.2086C69.6004 16.4011 69.7207 16.5856 69.801 16.762C68.4373 18.254 66.8491 19 65.0363 19ZM62.1726 11.1551L67.1539 11.0588C67.17 11.0267 67.178 10.9866 67.178 10.9385C67.178 10.8743 67.178 10.8342 67.178 10.8182C67.178 9.95187 66.9855 9.22995 66.6004 8.65241C66.2314 8.07487 65.678 7.7861 64.94 7.7861C64.2502 7.7861 63.6486 8.06684 63.1352 8.62834C62.6218 9.18984 62.301 10.0321 62.1726 11.1551Z" fill="#134E4A"/>
<path d="M71.415 18.7353C71.3668 18.4786 71.3668 18.2299 71.415 17.9893C71.9604 17.9572 72.3615 17.9091 72.6182 17.8449C72.8748 17.7647 73.0433 17.6043 73.1235 17.3636C73.2037 17.123 73.2438 16.738 73.2438 16.2086V10.8182C73.2438 10.1925 73.2117 9.72727 73.1476 9.42246C73.0994 9.11765 72.947 8.90909 72.6904 8.79679C72.4497 8.66845 72.0326 8.56417 71.439 8.48396C71.3909 8.25936 71.3909 8.0508 71.439 7.85829C72.0807 7.72995 72.7064 7.58556 73.316 7.42513C73.9257 7.24866 74.5674 7.02406 75.2412 6.75134L75.6503 6.89572V9.01337C76.7732 7.58556 77.9203 6.87166 79.0914 6.87166C79.6529 6.87166 80.07 7.02406 80.3428 7.32888C80.6155 7.61765 80.7519 7.94652 80.7519 8.31551C80.7519 8.74866 80.6075 9.08556 80.3187 9.3262C80.0299 9.5508 79.701 9.6631 79.3321 9.6631C79.0273 9.6631 78.7224 9.58289 78.4176 9.42246C78.1289 9.26203 77.9123 9.01337 77.7679 8.67647C77.2224 8.67647 76.7331 8.89305 76.3 9.3262C75.8829 9.74331 75.6743 10.2326 75.6743 10.7941V15.9679C75.6743 16.5936 75.7064 17.0428 75.7706 17.3155C75.8508 17.5882 76.0433 17.7647 76.3481 17.8449C76.669 17.9091 77.1823 17.9572 77.8882 17.9893C77.9203 18.2139 77.9203 18.4626 77.8882 18.7353C77.3428 18.7353 76.7813 18.7273 76.2037 18.7112C75.6262 18.6952 75.0326 18.6872 74.423 18.6872C73.8294 18.6872 73.3 18.6952 72.8347 18.7112C72.3855 18.7273 71.9123 18.7353 71.415 18.7353Z" fill="#134E4A"/>
<path d="M91.1513 18.7353C90.4454 18.7032 89.8118 18.6872 89.2503 18.6872C88.6888 18.6872 88.1995 18.6872 87.7824 18.6872H84.9668C84.4695 18.6872 83.916 18.6872 83.3064 18.6872C82.6968 18.6872 82.0471 18.6952 81.3572 18.7112C81.277 18.5508 81.2369 18.3824 81.2369 18.2059L88.2396 8.19519H85.7369C84.9348 8.19519 84.3332 8.25936 83.9321 8.3877C83.531 8.5 83.2182 8.73262 82.9936 9.08556C82.769 9.4385 82.5123 9.96791 82.2235 10.6738C81.9829 10.7059 81.7503 10.6818 81.5257 10.6016C81.638 9.94385 81.7342 9.3262 81.8144 8.74866C81.9107 8.17112 81.9668 7.64973 81.9829 7.18449C82.6727 7.21658 83.4348 7.24866 84.269 7.28075C85.1032 7.29679 85.9615 7.30481 86.8438 7.30481C87.5497 7.30481 88.3198 7.29679 89.154 7.28075C89.9882 7.26471 90.7262 7.24866 91.3679 7.23262C91.4802 7.39305 91.5364 7.56952 91.5364 7.76203L84.5096 17.7727H87.4454C88.023 17.7727 88.4882 17.7406 88.8412 17.6765C89.1941 17.6123 89.4909 17.484 89.7316 17.2914C89.9882 17.0989 90.2369 16.8102 90.4775 16.4251C90.7182 16.0241 91.007 15.4947 91.3438 14.8369C91.6005 14.8369 91.8171 14.877 91.9936 14.9572C91.8332 15.5829 91.6807 16.2166 91.5364 16.8583C91.408 17.484 91.2797 18.1096 91.1513 18.7353Z" fill="#134E4A"/>
<path d="M5.11497 18.7353C5.08289 18.4947 5.08289 18.238 5.11497 17.9652C5.91711 17.885 6.48663 17.8128 6.82353 17.7487C7.16043 17.6684 7.36898 17.508 7.4492 17.2674C7.52941 17.0267 7.56952 16.6176 7.56952 16.0401V2.90107H5.8369C4.98663 2.90107 4.31283 3.02139 3.81551 3.26203C3.33422 3.48663 2.94118 3.83155 2.63636 4.29679C2.34759 4.76203 2.05882 5.35561 1.77005 6.07754C1.51337 6.10963 1.25668 6.10963 1 6.07754C1.09626 5.30749 1.18449 4.56952 1.26471 3.86364C1.36096 3.15775 1.44118 2.47594 1.50535 1.81818C2.54813 1.88235 3.70321 1.92246 4.97059 1.9385C6.23797 1.9385 7.55348 1.9385 8.91711 1.9385C10.2968 1.9385 11.6203 1.9385 12.8877 1.9385C14.1711 1.92246 15.3262 1.88235 16.3529 1.81818C16.4171 2.45989 16.4813 3.14171 16.5455 3.86364C16.6096 4.56952 16.6898 5.30749 16.7861 6.07754C16.5134 6.10963 16.2487 6.10963 15.992 6.07754C15.6872 5.33957 15.3824 4.73797 15.0775 4.27273C14.7727 3.80749 14.3797 3.46257 13.8984 3.23797C13.4332 3.01337 12.7754 2.90107 11.9251 2.90107H10.2166V15.7273C10.2166 16.2246 10.2326 16.6176 10.2647 16.9064C10.2968 17.1952 10.385 17.4037 10.5294 17.5321C10.6898 17.6604 10.9385 17.7567 11.2754 17.8209C11.6123 17.869 12.0775 17.9171 12.6711 17.9652C12.7193 18.2219 12.7193 18.4786 12.6711 18.7353C12.3342 18.7353 11.9251 18.7273 11.4438 18.7112C10.9786 18.7112 10.5134 18.7112 10.0481 18.7112C9.58289 18.6952 9.18984 18.6872 8.86898 18.6872C8.56417 18.6872 8.17914 18.6952 7.7139 18.7112C7.26471 18.7112 6.79947 18.7112 6.31818 18.7112C5.85294 18.7273 5.45187 18.7353 5.11497 18.7353Z" stroke="#134E4A" stroke-width="0.2"/>
<path d="M16.2836 18.7353C16.2354 18.4786 16.2354 18.2299 16.2836 17.9893C16.829 17.9572 17.2301 17.9091 17.4868 17.8449C17.7435 17.7647 17.9119 17.6043 17.9921 17.3636C18.0723 17.123 18.1124 16.738 18.1124 16.2086V10.8182C18.1124 10.1925 18.0804 9.72727 18.0162 9.42246C17.9681 9.11765 17.8157 8.90909 17.559 8.79679C17.3183 8.66845 16.9012 8.56417 16.3076 8.48396C16.2595 8.25936 16.2595 8.0508 16.3076 7.85829C16.9493 7.72995 17.575 7.58556 18.1846 7.42513C18.7943 7.24866 19.436 7.02406 20.1098 6.75134L20.5189 6.89572V9.01337C21.6419 7.58556 22.7889 6.87166 23.96 6.87166C24.5215 6.87166 24.9386 7.02406 25.2114 7.32888C25.4841 7.61765 25.6205 7.94652 25.6205 8.31551C25.6205 8.74866 25.4761 9.08556 25.1873 9.3262C24.8985 9.5508 24.5697 9.6631 24.2007 9.6631C23.8959 9.6631 23.5911 9.58289 23.2862 9.42246C22.9975 9.26203 22.7809 9.01337 22.6365 8.67647C22.0911 8.67647 21.6017 8.89305 21.1686 9.3262C20.7515 9.74331 20.5429 10.2326 20.5429 10.7941V15.9679C20.5429 16.5936 20.575 17.0428 20.6392 17.3155C20.7194 17.5882 20.9119 17.7647 21.2167 17.8449C21.5376 17.9091 22.0509 17.9572 22.7568 17.9893C22.7889 18.2139 22.7889 18.4626 22.7568 18.7353C22.2114 18.7353 21.6499 18.7273 21.0723 18.7112C20.4948 18.6952 19.9012 18.6872 19.2916 18.6872C18.698 18.6872 18.1686 18.6952 17.7034 18.7112C17.2542 18.7273 16.7809 18.7353 16.2836 18.7353Z" stroke="#134E4A" stroke-width="0.2"/>
<path d="M34.4855 18.9519C33.4267 18.9519 32.7609 18.4225 32.4882 17.3636C31.3491 18.4545 30.186 19 28.9988 19C28.1807 19 27.4828 18.7594 26.9053 18.2781C26.3438 17.7807 26.063 17.0989 26.063 16.2326C26.063 14.115 28.2208 12.7834 32.5363 12.238C32.5363 11.8529 32.5363 11.4599 32.5363 11.0588C32.5523 10.6578 32.5603 10.2326 32.5603 9.78342C32.5603 9.22192 32.3518 8.78877 31.9347 8.48396C31.5336 8.1631 31.0443 8.00267 30.4668 8.00267C30.0497 8.00267 29.6967 8.06684 29.4079 8.19519C29.4079 8.56417 29.3277 8.94118 29.1673 9.3262C29.0069 9.71123 28.7823 10.0401 28.4935 10.3128C28.2208 10.5695 27.8839 10.6979 27.4828 10.6979C27.1299 10.6979 26.8491 10.6016 26.6406 10.4091C26.448 10.2005 26.3518 9.95187 26.3518 9.6631C26.3518 9.27808 26.5283 8.91711 26.8812 8.58021C27.2502 8.22727 27.7154 7.93048 28.2769 7.68984C28.8384 7.43316 29.424 7.23262 30.0336 7.08824C30.6432 6.94385 31.1887 6.87166 31.67 6.87166C32.2636 6.87166 32.809 6.98396 33.3063 7.20856C33.8197 7.41711 34.2288 7.73797 34.5336 8.17112C34.8545 8.58824 35.0149 9.10963 35.0149 9.73529C35.0149 10.1203 35.0069 10.6257 34.9908 11.2513C34.9748 11.861 34.9587 12.5187 34.9427 13.2246C34.9427 13.9144 34.9347 14.5722 34.9186 15.1979C34.9026 15.8235 34.8946 16.3289 34.8946 16.7139C34.8946 17.2273 35.1192 17.484 35.5684 17.484C35.8571 17.484 36.2983 17.3877 36.8919 17.1952C36.9561 17.2754 36.9962 17.3636 37.0122 17.4599C37.0443 17.5561 37.0684 17.6444 37.0844 17.7246C36.6833 18.1578 36.2582 18.4706 35.809 18.6631C35.3759 18.8556 34.9347 18.9519 34.4855 18.9519ZM32.4882 16.7139L32.5363 13.1043C31.0603 13.2968 30.0416 13.6096 29.4801 14.0428C28.9347 14.4759 28.6619 15.0294 28.6619 15.7032C28.6619 16.2647 28.8063 16.6979 29.0951 17.0027C29.3999 17.2914 29.7769 17.4358 30.2261 17.4358C30.5149 17.4358 30.8357 17.3717 31.1887 17.2433C31.5577 17.115 31.9908 16.9385 32.4882 16.7139Z" stroke="#134E4A" stroke-width="0.2"/>
<path d="M43.8023 18.7353C43.3531 18.7353 42.8878 18.7273 42.4065 18.7112C41.9253 18.6952 41.4039 18.6872 40.8424 18.6872C40.329 18.6872 39.8076 18.6952 39.2782 18.7112C38.7648 18.7273 38.2675 18.7353 37.7862 18.7353C37.7381 18.4786 37.7381 18.2299 37.7862 17.9893C38.3317 17.9572 38.7327 17.9091 38.9894 17.8449C39.2461 17.7647 39.4146 17.6043 39.4948 17.3636C39.575 17.123 39.6151 16.738 39.6151 16.2086V10.8182C39.6151 10.1925 39.591 9.72727 39.5429 9.42246C39.4948 9.11765 39.3424 8.90909 39.0857 8.79679C38.845 8.66845 38.4199 8.56417 37.8103 8.48396C37.7622 8.25936 37.7622 8.0508 37.8103 7.85829C38.5162 7.72995 39.19 7.56952 39.8317 7.37701C40.4734 7.18449 41.091 6.97594 41.6846 6.75134L42.0937 6.89572C42.0777 7.39305 42.0616 7.85829 42.0456 8.29144C42.0456 8.7246 42.0456 9.13369 42.0456 9.51872V15.9679C42.0456 16.5936 42.0777 17.0428 42.1418 17.3155C42.222 17.5882 42.3825 17.7647 42.6231 17.8449C42.8798 17.9091 43.2729 17.9572 43.8023 17.9893C43.8504 18.2299 43.8504 18.4786 43.8023 18.7353ZM38.9894 2.66043C38.9894 2.19519 39.1499 1.80214 39.4707 1.48128C39.8076 1.16043 40.2087 1 40.6739 1C41.1231 1 41.5081 1.16043 41.829 1.48128C42.1659 1.80214 42.3343 2.18717 42.3343 2.63636C42.3343 3.05348 42.1739 3.4385 41.8531 3.79144C41.5322 4.12834 41.1231 4.29679 40.6258 4.29679C40.1766 4.29679 39.7916 4.13636 39.4707 3.81551C39.1499 3.49465 38.9894 3.10963 38.9894 2.66043Z" stroke="#134E4A" stroke-width="0.2"/>
<path d="M52.4859 18.7353C52.4538 18.4786 52.4538 18.2299 52.4859 17.9893C52.9832 17.9572 53.3522 17.9091 53.5928 17.8449C53.8335 17.7647 53.9939 17.6043 54.0741 17.3636C54.1543 17.123 54.1944 16.738 54.1944 16.2086V11.3476C54.1944 10.385 54.042 9.67112 53.7372 9.20588C53.4484 8.7246 52.8629 8.48396 51.9805 8.48396C51.5153 8.48396 51.0661 8.57219 50.6329 8.74866C50.1998 8.90909 49.7265 9.22192 49.2131 9.68717V15.9679C49.2131 16.5936 49.2452 17.0428 49.3094 17.3155C49.3896 17.5882 49.55 17.7647 49.7907 17.8449C50.0313 17.9091 50.4083 17.9572 50.9217 17.9893C50.9538 18.2299 50.9538 18.4786 50.9217 18.7353C50.4725 18.7353 49.9992 18.7273 49.5019 18.7112C49.0206 18.6952 48.4992 18.6872 47.9377 18.6872C47.4244 18.6872 46.919 18.6952 46.4217 18.7112C45.9244 18.7273 45.4351 18.7353 44.9538 18.7353C44.9056 18.4786 44.9056 18.2299 44.9538 17.9893C45.4992 17.9572 45.9003 17.9091 46.157 17.8449C46.4137 17.7647 46.5821 17.6043 46.6623 17.3636C46.7425 17.123 46.7826 16.738 46.7826 16.2086V10.8182C46.7826 10.1925 46.7506 9.72727 46.6864 9.42246C46.6383 9.11765 46.4859 8.90909 46.2292 8.79679C45.9885 8.66845 45.5714 8.56417 44.9778 8.48396C44.9297 8.25936 44.9297 8.0508 44.9778 7.85829C46.3575 7.58556 47.6249 7.21658 48.78 6.75134L49.1891 6.89572V8.70053C49.927 8.02674 50.649 7.55348 51.3548 7.28075C52.0607 7.00802 52.7345 6.87166 53.3762 6.87166C54.4351 6.87166 55.2452 7.18449 55.8067 7.81016C56.3682 8.43583 56.649 9.33422 56.649 10.5053V15.9679C56.649 16.5936 56.681 17.0428 56.7452 17.3155C56.8254 17.5882 56.9859 17.7647 57.2265 17.8449C57.4671 17.9091 57.8522 17.9572 58.3816 17.9893C58.4137 18.2299 58.4137 18.4786 58.3816 18.7353C57.9003 18.7353 57.427 18.7273 56.9618 18.7112C56.5126 18.6952 55.9832 18.6872 55.3736 18.6872C54.78 18.6872 54.2586 18.6952 53.8094 18.7112C53.3762 18.7273 52.9351 18.7353 52.4859 18.7353Z" stroke="#134E4A" stroke-width="0.2"/>
<path d="M65.0363 19C63.8972 19 62.9347 18.7353 62.1486 18.2059C61.3625 17.6765 60.7609 16.9706 60.3437 16.0882C59.9427 15.1898 59.7421 14.2032 59.7421 13.1283C59.7421 12.0214 59.9507 10.9947 60.3678 10.0481C60.801 9.1016 61.4266 8.33957 62.2448 7.76203C63.063 7.16845 64.0577 6.87166 65.2288 6.87166C66.6405 6.87166 67.7395 7.29679 68.5256 8.14706C69.3277 8.98128 69.7288 10.0642 69.7288 11.3957C69.7288 11.5561 69.7208 11.7005 69.7047 11.8289C69.7047 11.9412 69.6967 12.0374 69.6806 12.1176L62.1004 12.0455C62.1004 12.1096 62.1004 12.1658 62.1004 12.2139C62.1004 13.7861 62.4614 15.0214 63.1833 15.9198C63.9052 16.8182 64.9159 17.2674 66.2154 17.2674C67.3063 17.2674 68.3812 16.9144 69.44 16.2086C69.6004 16.4011 69.7207 16.5856 69.801 16.762C68.4373 18.254 66.8491 19 65.0363 19ZM62.1726 11.1551L67.1539 11.0588C67.17 11.0267 67.178 10.9866 67.178 10.9385C67.178 10.8743 67.178 10.8342 67.178 10.8182C67.178 9.95187 66.9855 9.22995 66.6004 8.65241C66.2314 8.07487 65.678 7.7861 64.94 7.7861C64.2502 7.7861 63.6486 8.06684 63.1352 8.62834C62.6218 9.18984 62.301 10.0321 62.1726 11.1551Z" stroke="#134E4A" stroke-width="0.2"/>
<path d="M71.415 18.7353C71.3668 18.4786 71.3668 18.2299 71.415 17.9893C71.9604 17.9572 72.3615 17.9091 72.6182 17.8449C72.8748 17.7647 73.0433 17.6043 73.1235 17.3636C73.2037 17.123 73.2438 16.738 73.2438 16.2086V10.8182C73.2438 10.1925 73.2117 9.72727 73.1476 9.42246C73.0994 9.11765 72.947 8.90909 72.6904 8.79679C72.4497 8.66845 72.0326 8.56417 71.439 8.48396C71.3909 8.25936 71.3909 8.0508 71.439 7.85829C72.0807 7.72995 72.7064 7.58556 73.316 7.42513C73.9257 7.24866 74.5674 7.02406 75.2412 6.75134L75.6503 6.89572V9.01337C76.7732 7.58556 77.9203 6.87166 79.0914 6.87166C79.6529 6.87166 80.07 7.02406 80.3428 7.32888C80.6155 7.61765 80.7519 7.94652 80.7519 8.31551C80.7519 8.74866 80.6075 9.08556 80.3187 9.3262C80.0299 9.5508 79.701 9.6631 79.3321 9.6631C79.0273 9.6631 78.7224 9.58289 78.4176 9.42246C78.1289 9.26203 77.9123 9.01337 77.7679 8.67647C77.2224 8.67647 76.7331 8.89305 76.3 9.3262C75.8829 9.74331 75.6743 10.2326 75.6743 10.7941V15.9679C75.6743 16.5936 75.7064 17.0428 75.7706 17.3155C75.8508 17.5882 76.0433 17.7647 76.3481 17.8449C76.669 17.9091 77.1823 17.9572 77.8882 17.9893C77.9203 18.2139 77.9203 18.4626 77.8882 18.7353C77.3428 18.7353 76.7813 18.7273 76.2037 18.7112C75.6262 18.6952 75.0326 18.6872 74.423 18.6872C73.8294 18.6872 73.3 18.6952 72.8347 18.7112C72.3855 18.7273 71.9123 18.7353 71.415 18.7353Z" stroke="#134E4A" stroke-width="0.2"/>
<path d="M91.1513 18.7353C90.4454 18.7032 89.8118 18.6872 89.2503 18.6872C88.6888 18.6872 88.1995 18.6872 87.7824 18.6872H84.9668C84.4695 18.6872 83.916 18.6872 83.3064 18.6872C82.6968 18.6872 82.0471 18.6952 81.3572 18.7112C81.277 18.5508 81.2369 18.3824 81.2369 18.2059L88.2396 8.19519H85.7369C84.9348 8.19519 84.3332 8.25936 83.9321 8.3877C83.531 8.5 83.2182 8.73262 82.9936 9.08556C82.769 9.4385 82.5123 9.96791 82.2235 10.6738C81.9829 10.7059 81.7503 10.6818 81.5257 10.6016C81.638 9.94385 81.7342 9.3262 81.8144 8.74866C81.9107 8.17112 81.9668 7.64973 81.9829 7.18449C82.6727 7.21658 83.4348 7.24866 84.269 7.28075C85.1032 7.29679 85.9615 7.30481 86.8438 7.30481C87.5497 7.30481 88.3198 7.29679 89.154 7.28075C89.9882 7.26471 90.7262 7.24866 91.3679 7.23262C91.4802 7.39305 91.5364 7.56952 91.5364 7.76203L84.5096 17.7727H87.4454C88.023 17.7727 88.4882 17.7406 88.8412 17.6765C89.1941 17.6123 89.4909 17.484 89.7316 17.2914C89.9882 17.0989 90.2369 16.8102 90.4775 16.4251C90.7182 16.0241 91.007 15.4947 91.3438 14.8369C91.6005 14.8369 91.8171 14.877 91.9936 14.9572C91.8332 15.5829 91.6807 16.2166 91.5364 16.8583C91.408 17.484 91.2797 18.1096 91.1513 18.7353Z" stroke="#134E4A" stroke-width="0.2"/>
</svg>
