<svg width="233" height="38" viewBox="0 0 233 38" fill="none" xmlns="http://www.w3.org/2000/svg">
<path d="M165.998 13.0655C164.159 13.0655 162.395 13.7963 161.094 15.097C159.793 16.3978 159.062 18.162 159.062 20.0015C159.062 21.841 159.793 23.6052 161.094 24.906C162.395 26.2068 164.159 26.9375 165.998 26.9375C167.838 26.9375 169.602 26.2068 170.903 24.906C172.204 23.6052 172.934 21.841 172.934 20.0015C172.934 18.162 172.204 16.3978 170.903 15.097C169.602 13.7963 167.838 13.0655 165.998 13.0655ZM165.998 24.506C164.803 24.506 163.657 24.0313 162.812 23.1862C161.967 22.3412 161.492 21.1951 161.492 20C161.492 18.8049 161.967 17.6588 162.812 16.8138C163.657 15.9687 164.803 15.494 165.998 15.494C167.193 15.494 168.34 15.9687 169.185 16.8138C170.03 17.6588 170.504 18.8049 170.504 20C170.504 21.1951 170.03 22.3412 169.185 23.1862C168.34 24.0313 167.193 24.506 165.998 24.506Z" fill="#2D2D2D"/>
<path d="M173.209 14.4275C174.102 14.4275 174.826 13.7036 174.826 12.8105C174.826 11.9175 174.102 11.1935 173.209 11.1935C172.316 11.1935 171.592 11.9175 171.592 12.8105C171.592 13.7036 172.316 14.4275 173.209 14.4275Z" fill="#2D2D2D"/>
<path d="M178.799 11.1665C178.452 10.2698 177.922 9.45543 177.241 8.7756C176.561 8.09576 175.747 7.56541 174.85 7.21851C173.8 6.82454 172.692 6.61152 171.571 6.58851C170.126 6.52551 169.669 6.50751 166.006 6.50751C162.343 6.50751 161.873 6.50751 160.441 6.58851C159.321 6.61034 158.213 6.82341 157.165 7.21851C156.268 7.56501 155.453 8.09521 154.773 8.7751C154.093 9.45499 153.562 10.2695 153.215 11.1665C152.821 12.2159 152.609 13.3248 152.587 14.4455C152.522 15.8885 152.503 16.346 152.503 20.0105C152.503 23.6735 152.503 24.14 152.587 25.5755C152.609 26.6975 152.821 27.8045 153.215 28.856C153.563 29.7526 154.094 30.5669 154.775 31.2467C155.455 31.9265 156.27 32.4569 157.166 32.804C158.213 33.2138 159.321 33.4421 160.444 33.479C161.888 33.542 162.346 33.5615 166.009 33.5615C169.672 33.5615 170.141 33.5615 171.574 33.479C172.695 33.4562 173.803 33.2437 174.853 32.8505C175.75 32.5028 176.564 31.972 177.244 31.292C177.924 30.6119 178.455 29.7976 178.802 28.901C179.197 27.851 179.408 26.744 179.431 25.622C179.495 24.179 179.515 23.7215 179.515 20.057C179.515 16.3925 179.515 15.9275 179.431 14.492C179.413 13.3554 179.2 12.2304 178.799 11.1665ZM176.972 25.4645C176.963 26.329 176.805 27.1854 176.506 27.9965C176.281 28.5798 175.936 29.1095 175.494 29.5515C175.051 29.9935 174.521 30.3381 173.938 30.563C173.136 30.8607 172.288 31.0185 171.433 31.0295C170.008 31.0955 169.606 31.112 165.952 31.112C162.295 31.112 161.921 31.112 160.469 31.0295C159.614 31.019 158.767 30.8612 157.966 30.563C157.38 30.3395 156.848 29.9955 156.404 29.5534C155.96 29.1113 155.614 28.5809 155.387 27.9965C155.093 27.1941 154.935 26.3478 154.921 25.493C154.856 24.068 154.841 23.666 154.841 20.012C154.841 16.3565 154.841 15.983 154.921 14.5295C154.931 13.6655 155.088 12.8096 155.387 11.999C155.845 10.8155 156.782 9.88401 157.966 9.43101C158.768 9.13422 159.614 8.97645 160.469 8.96451C161.896 8.90001 162.296 8.88201 165.952 8.88201C169.607 8.88201 169.982 8.88201 171.433 8.96451C172.289 8.9748 173.136 9.13261 173.938 9.43101C174.521 9.65642 175.051 10.0013 175.493 10.4436C175.936 10.8858 176.281 11.4156 176.506 11.999C176.801 12.8014 176.958 13.6477 176.972 14.5025C177.037 15.929 177.053 16.3295 177.053 19.985C177.053 23.639 177.053 24.032 176.989 25.466H176.972V25.4645Z" fill="#2D2D2D"/>
<path d="M208.705 10.5965C209.588 10.5965 210.383 10.673 211.112 10.829C211.837 10.9835 212.455 11.2385 212.976 11.591C213.491 11.9435 213.893 12.4115 214.182 12.9995C214.463 13.58 214.602 14.306 214.602 15.164C214.602 16.094 214.392 16.871 213.971 17.4905C213.547 18.1115 212.921 18.62 212.087 19.013C213.222 19.3415 214.064 19.916 214.622 20.732C215.183 21.5555 215.458 22.541 215.458 23.696C215.458 24.6335 215.279 25.439 214.92 26.1155C214.575 26.7819 214.074 27.3552 213.459 27.7865C212.823 28.2296 212.112 28.5548 211.361 28.7465C210.573 28.9533 209.762 29.0572 208.948 29.0555H200V10.5965H208.705ZM208.178 18.0545C208.898 18.0545 209.495 17.8835 209.966 17.537C210.434 17.195 210.661 16.631 210.661 15.8585C210.661 15.4295 210.584 15.0755 210.434 14.798C210.288 14.531 210.072 14.309 209.808 14.156C209.533 13.9927 209.229 13.8832 208.913 13.8335C208.568 13.7692 208.218 13.7386 207.867 13.742H204.065V18.0545H208.178ZM208.405 25.913C208.805 25.913 209.186 25.8785 209.545 25.7975C209.906 25.7195 210.227 25.5935 210.5 25.406C210.773 25.226 210.998 24.9815 211.16 24.6695C211.323 24.3605 211.403 23.957 211.403 23.4725C211.403 22.5215 211.135 21.845 210.604 21.4355C210.071 21.0305 209.357 20.8295 208.483 20.8295H204.065V25.9145H208.405V25.913ZM221.252 25.8515C221.802 26.3885 222.596 26.6585 223.628 26.6585C224.368 26.6585 225.007 26.471 225.545 26.099C226.076 25.7255 226.4 25.3265 226.525 24.914H229.757C229.238 26.522 228.451 27.671 227.374 28.3625C226.31 29.057 225.016 29.402 223.504 29.402C222.451 29.402 221.503 29.2325 220.653 28.8965C219.839 28.5791 219.102 28.0889 218.495 27.4595C217.898 26.8154 217.436 26.0579 217.138 25.232C216.809 24.3187 216.647 23.354 216.657 22.3835C216.657 21.3845 216.824 20.45 217.151 19.5875C217.461 18.7538 217.938 17.9918 218.552 17.348C219.16 16.718 219.88 16.2215 220.718 15.857C221.6 15.4862 222.549 15.3013 223.505 15.314C224.636 15.314 225.625 15.533 226.473 15.974C227.297 16.395 228.011 17.002 228.558 17.747C229.103 18.4865 229.492 19.334 229.733 20.2835C229.975 21.2315 230.059 22.2215 229.99 23.258H220.343C220.344 24.314 220.7 25.3145 221.252 25.8515ZM225.47 18.83C225.033 18.347 224.295 18.086 223.392 18.086C222.806 18.086 222.322 18.1835 221.931 18.3845C221.575 18.5646 221.259 18.8152 221.001 19.121C220.776 19.3987 220.608 19.7191 220.51 20.063C220.423 20.3498 220.367 20.6449 220.343 20.9435H226.316C226.229 20.0075 225.908 19.316 225.47 18.83ZM219.593 11.8355H227.076V13.658H219.593V11.8355Z" fill="#2D2D2D"/>
<path d="M129.99 12.47C128.681 10.2016 126.797 8.31831 124.528 7.01C122.229 5.6705 119.719 5 117 5C114.281 5 111.771 5.6705 109.47 7.01C107.17 8.3495 105.349 10.1705 104.01 12.47C102.67 14.7695 102 17.2805 102 20C102 22.7195 102.669 25.2305 104.01 27.53C105.318 29.7988 107.202 31.6821 109.471 32.99C111.771 34.3295 114.281 35 117 35C119.719 35 122.229 34.3295 124.53 32.99C126.799 31.6817 128.683 29.7984 129.991 27.53C131.331 25.2305 132 22.7195 132 20C132 17.2805 131.331 14.7695 129.99 12.47ZM117 7.49C120 7.49 122.658 8.45 124.98 10.3685C123.6 12.1295 121.551 13.5785 118.83 14.7185C117.327 11.999 115.698 9.728 113.938 7.9085C114.936 7.63277 115.965 7.49202 117 7.49ZM107.265 12.2C108.362 10.8071 109.75 9.67066 111.331 8.87C113.149 10.6715 114.819 12.92 116.341 15.62C113.341 16.52 110.17 16.97 106.83 16.97C105.97 16.97 105.321 16.9505 104.88 16.91C105.34 15.1916 106.152 13.5876 107.265 12.2ZM104.49 20C104.49 19.919 104.495 19.82 104.505 19.7C104.516 19.58 104.52 19.481 104.52 19.4C104.901 19.421 105.482 19.43 106.262 19.43C110.26 19.43 113.98 18.8795 117.42 17.78C117.7 18.3395 117.991 18.9695 118.29 19.67C116.31 20.1095 114.279 21.179 112.198 22.88C110.118 24.581 108.6 26.3705 107.64 28.25C105.54 25.8695 104.49 23.12 104.49 20ZM117 32.51C114.159 32.51 111.609 31.6295 109.349 29.8715C110.25 28.091 111.635 26.3885 113.505 24.77C115.374 23.15 117.229 22.1405 119.07 21.74C120.231 24.9485 121.016 28.2807 121.41 31.67C120.004 32.2193 118.509 32.5041 117 32.51ZM127.62 26.57C126.638 28.1518 125.316 29.4949 123.75 30.5015C123.39 27.3815 122.7 24.341 121.681 21.38C123.08 21.281 124.329 21.23 125.431 21.23C126.63 21.23 127.961 21.281 129.42 21.38C129.224 23.2248 128.608 25.0001 127.62 26.57ZM125.76 19.07C124.02 19.07 122.41 19.1405 120.93 19.28C120.616 18.4592 120.276 17.6487 119.91 16.85C123.009 15.491 125.208 13.841 126.509 11.9C128.309 14.021 129.289 16.4405 129.448 19.16C128.23 19.1 127 19.07 125.76 19.07Z" fill="#2D2D2D"/>
<path d="M80 6.5H56C55.6022 6.5 55.2206 6.65804 54.9393 6.93934C54.658 7.22064 54.5 7.60218 54.5 8V32C54.5 32.3978 54.658 32.7794 54.9393 33.0607C55.2206 33.342 55.6022 33.5 56 33.5H68.9225V23.06H65.4155V18.9725H68.9225V15.9725C68.9225 12.485 71.0525 10.5845 74.1725 10.5845C75.221 10.5815 76.271 10.6355 77.315 10.745V14.375H75.1625C73.4705 14.375 73.1405 15.182 73.1405 16.3625V18.965H77.186L76.661 23.0525H73.139V33.5H80C80.3978 33.5 80.7794 33.342 81.0607 33.0607C81.342 32.7794 81.5 32.3978 81.5 32V8C81.5 7.60218 81.342 7.22064 81.0607 6.93934C80.7794 6.65804 80.3978 6.5 80 6.5Z" fill="#2D2D2D"/>
<path d="M15.3895 18.4565C14.5765 18.4565 13.936 19.169 13.936 20.039C13.936 20.906 14.5915 21.6215 15.3895 21.6215C16.201 21.6215 16.8415 20.906 16.8415 20.039C16.858 19.1675 16.201 18.4565 15.3895 18.4565ZM20.5915 18.4565C19.7785 18.4565 19.138 19.169 19.138 20.039C19.138 20.906 19.7935 21.6215 20.5915 21.6215C21.403 21.6215 22.0435 20.906 22.0435 20.039C22.042 19.1675 21.403 18.4565 20.5915 18.4565Z" fill="#2D2D2D"/>
<path d="M27.517 6.5H8.42051C8.036 6.50098 7.65545 6.57769 7.30058 6.72575C6.94572 6.8738 6.62349 7.09031 6.35229 7.36289C6.0811 7.63548 5.86625 7.95881 5.72002 8.31443C5.57378 8.67005 5.49902 9.05099 5.50001 9.4355V28.7015C5.50001 30.326 6.81101 31.637 8.42051 31.637H24.58L23.8225 28.9985L25.648 30.695L27.3715 32.291L30.4375 35V9.4355C30.4385 9.05099 30.3637 8.67005 30.2175 8.31443C30.0713 7.95881 29.8564 7.63548 29.5852 7.36289C29.314 7.09031 28.9918 6.8738 28.6369 6.72575C28.2821 6.57769 27.9015 6.50098 27.517 6.5ZM22.015 25.1105C22.015 25.1105 21.502 24.4985 21.076 23.954C22.942 23.426 23.6545 22.259 23.6545 22.259C23.0695 22.643 22.5145 22.916 22.015 23.102C20.1965 23.8631 18.194 24.0707 16.258 23.699C15.5427 23.5585 14.8417 23.3526 14.164 23.084C13.8066 22.9482 13.4592 22.7873 13.1245 22.6025C13.081 22.571 13.039 22.559 12.997 22.5305C12.9745 22.5198 12.9546 22.5045 12.9385 22.4855C12.682 22.3445 12.5395 22.2455 12.5395 22.2455C12.5395 22.2455 13.2235 23.3855 15.034 23.927C14.6065 24.467 14.0785 25.1105 14.0785 25.1105C10.93 25.01 9.73451 22.9445 9.73451 22.9445C9.73451 18.356 11.7865 14.6375 11.7865 14.6375C13.8385 13.097 15.79 13.1405 15.79 13.1405L15.9325 13.3115C13.3675 14.054 12.184 15.179 12.184 15.179C12.184 15.179 12.499 15.008 13.0255 14.7665C14.5495 14.0975 15.76 13.9115 16.2595 13.868C16.345 13.8545 16.417 13.8395 16.5025 13.8395C18.9733 13.5065 21.4857 13.9761 23.6695 15.179C23.6695 15.179 22.543 14.111 20.1205 13.37L20.32 13.142C20.32 13.142 22.273 13.0985 24.3235 14.639C24.3235 14.639 26.3755 18.3575 26.3755 22.946C26.3755 22.946 25.165 25.01 22.015 25.1105Z" fill="#2D2D2D"/>
<g opacity="0.01">
<path d="M23.25 23.99H12.81L10.65 29H6.75L16.41 7.64H19.56L29.25 29H25.38L23.25 23.99ZM21.96 20.99L18.03 11.84L14.1 20.99H21.96Z" fill="#FF6250" fill-opacity="0.01"/>
<path d="M6.75 32H29.25V33.5H6.75V32Z" fill="#FF6250" fill-opacity="0.01"/>
</g>
<a href="https://discord.com/invite/eQxkYTNxSp">
<rect fill="black" fill-opacity="0" x="6.75" y="-0.824999" width="22.5" height="37.65"/>
</a>
<g opacity="0.01">
<path d="M72.25 24.99H61.81L59.65 30H55.75L65.41 8.64H68.56L78.25 30H74.38L72.25 24.99ZM70.96 21.99L67.03 12.84L63.1 21.99H70.96Z" fill="#FF6250" fill-opacity="0.01"/>
<path d="M55.75 33H78.25V34.5H55.75V33Z" fill="#FF6250" fill-opacity="0.01"/>
</g>
<a href="https://www.facebook.com/animaapp/">
<rect fill="black" fill-opacity="0" x="6.75" y="-0.824999" width="22.5" height="37.65"/>
</a>
<g opacity="0.01">
<path d="M121.25 23.99H110.81L108.65 29H104.75L114.41 7.64H117.56L127.25 29H123.38L121.25 23.99ZM119.96 20.99L116.03 11.84L112.1 20.99H119.96Z" fill="#FF6250" fill-opacity="0.01"/>
<path d="M104.75 32H127.25V33.5H104.75V32Z" fill="#FF6250" fill-opacity="0.01"/>
</g>
<a href="https://dribbble.com/animaapp">
<rect fill="black" fill-opacity="0" x="6.75" y="-0.824999" width="22.5" height="37.65"/>
</a>
<g opacity="0.01">
<path d="M170.25 23.99H159.81L157.65 29H153.75L163.41 7.64H166.56L176.25 29H172.38L170.25 23.99ZM168.96 20.99L165.03 11.84L161.1 20.99H168.96Z" fill="#FF6250" fill-opacity="0.01"/>
<path d="M153.75 32H176.25V33.5H153.75V32Z" fill="#FF6250" fill-opacity="0.01"/>
</g>
<a href="https://www.instagram.com/animaapp/?hl=en">
<rect fill="black" fill-opacity="0" x="6.75" y="-0.824999" width="22.5" height="37.65"/>
</a>
<g opacity="0.01">
<path d="M219.25 23.99H208.81L206.65 29H202.75L212.41 7.64H215.56L225.25 29H221.38L219.25 23.99ZM217.96 20.99L214.03 11.84L210.1 20.99H217.96Z" fill="#FF6250" fill-opacity="0.01"/>
<path d="M202.75 32H225.25V33.5H202.75V32Z" fill="#FF6250" fill-opacity="0.01"/>
</g>
<a href="https://www.behance.net/Anima_design">
<rect fill="black" fill-opacity="0" x="6.75" y="-0.824999" width="22.5" height="37.65"/>
</a>
</svg>
